<svg width="40" height="40" viewBox="0 0 40 40" fill="none" xmlns="http://www.w3.org/2000/svg">
<path d="M33.75 33.75V18.0468C33.7472 17.8739 33.7098 17.7032 33.64 17.5448C33.5703 17.3865 33.4695 17.2438 33.3437 17.125L20.8437 5.76559C20.6133 5.55478 20.3123 5.43787 20 5.43787C19.6877 5.43787 19.3867 5.55478 19.1562 5.76559L6.65625 17.125C6.53047 17.2438 6.42972 17.3865 6.35995 17.5448C6.29018 17.7032 6.2528 17.8739 6.25 18.0468V33.75" stroke="white" stroke-width="2" stroke-linecap="round" stroke-linejoin="round"/>
<path d="M2.5 33.7499H37.5" stroke="white" stroke-width="2" stroke-linecap="round" stroke-linejoin="round"/>
<path d="M23.75 33.7499V24.9999C23.75 24.6684 23.6183 24.3505 23.3839 24.1161C23.1495 23.8816 22.8315 23.7499 22.5 23.7499H17.5C17.1685 23.7499 16.8505 23.8816 16.6161 24.1161C16.3817 24.3505 16.25 24.6684 16.25 24.9999V33.7499" stroke="white" stroke-width="2" stroke-linecap="round" stroke-linejoin="round"/>
</svg>
